<svg width="18" height="19" viewBox="0 0 18 19" fill="none" xmlns="http://www.w3.org/2000/svg">
<path d="M16.3125 5.5625V13.4375C16.3125 13.8851 16.1347 14.3143 15.8182 14.6307C15.5018 14.9472 15.0726 15.125 14.625 15.125H3.375C2.92745 15.125 2.49822 14.9472 2.18176 14.6307C1.86529 14.3143 1.6875 13.8851 1.6875 13.4375V5.5625M16.3125 5.5625C16.3125 5.11495 16.1347 4.68573 15.8182 4.36926C15.5018 4.05279 15.0726 3.875 14.625 3.875H3.375C2.92745 3.875 2.49822 4.05279 2.18176 4.36926C1.86529 4.68573 1.6875 5.11495 1.6875 5.5625M16.3125 5.5625V5.74475C16.3125 6.03286 16.2388 6.31618 16.0983 6.56772C15.9578 6.81926 15.7553 7.03065 15.51 7.18175L9.885 10.643C9.61891 10.8069 9.31252 10.8937 9 10.8937C8.68748 10.8937 8.38109 10.8069 8.115 10.643L2.49 7.1825C2.24469 7.0314 2.04215 6.82001 1.90168 6.56847C1.7612 6.31693 1.68747 6.03361 1.6875 5.7455V5.5625" stroke="#A4A4A4" stroke-width="1.5" stroke-linecap="round" stroke-linejoin="round"/>
</svg>
