<svg width="39" height="38" viewBox="0 0 39 38" fill="none" xmlns="http://www.w3.org/2000/svg">
<path d="M38.7632 17.1601C38.5165 10.3299 28.7523 10.3393 28.5116 17.1601C28.5131 18.4374 28.985 19.6688 29.8361 20.6164C30.6872 21.5641 31.8572 22.1607 33.1201 22.2912C33.9941 33.8915 26.4148 35.9421 26.1468 36.0132C22.1264 36.6083 19.0041 35.9817 16.8686 34.1484C14.2504 31.9012 13.6836 28.309 13.5783 26.3657C17.972 25.073 23.5372 18.8855 24.476 7.84458C24.5781 6.59223 24.2082 5.34703 23.4398 4.35649C22.6713 3.36594 21.5605 2.70257 20.3282 2.49823C19.5728 -1.10067 14.3037 -0.622381 14.2444 3.10196C14.2511 3.8501 14.5275 4.57037 15.0221 5.12898C15.5168 5.6876 16.1962 6.04659 16.9341 6.13929C17.672 6.23199 18.4183 6.05209 19.0343 5.63301C19.6503 5.21393 20.0942 4.58416 20.2836 3.86064C21.1489 4.0438 21.9178 4.53924 22.4451 5.25351C22.9723 5.96777 23.2216 6.85147 23.1458 7.73793C22.3358 17.9919 17.4713 22.6688 14.6464 24.5417C14.1411 24.8822 13.5488 25.0688 12.9407 25.079C12.3326 25.0893 11.7345 24.9227 11.2181 24.5994C6.24898 21.2843 3.58207 13.044 2.4353 8.42685C2.31818 7.96315 2.29471 7.48051 2.36628 7.00752C2.43786 6.53453 2.60303 6.08079 2.852 5.67317C3.15065 5.19565 3.55074 4.79062 4.0235 4.4872C4.49627 4.18378 5.02997 3.9895 5.58625 3.91833C5.78964 4.64941 6.2537 5.27942 6.88971 5.68791C7.52572 6.09641 8.28905 6.25473 9.03378 6.1326C9.77851 6.01048 10.4524 5.61649 10.9265 5.02594C11.4007 4.4354 11.6419 3.68973 11.6041 2.93152C11.5662 2.1733 11.2519 1.45572 10.7213 0.915972C10.1907 0.376223 9.48094 0.0521722 8.7278 0.00577344C7.97466 -0.0406253 7.23094 0.193883 6.63883 0.664464C6.04673 1.13505 5.64777 1.80868 5.51824 2.55659L4.80418 2.72429C4.16921 2.87628 3.57039 3.15311 3.04218 3.53886C2.51397 3.92461 2.06681 4.41166 1.72642 4.97197C1.38603 5.53228 1.15915 6.15479 1.05882 6.80368C0.958499 7.45256 0.986715 8.115 1.14185 8.75286C2.4353 13.6223 5.65359 24.4518 12.2442 26.3831C12.3542 28.5216 12.9816 32.576 16.0032 35.1694C18.4607 37.4266 22.7705 37.9519 26.4015 37.3287C26.4928 37.3066 35.3796 34.9721 34.4522 22.2462C35.6536 22.0508 36.7469 21.4319 37.5366 20.5002C38.3264 19.5685 38.7611 18.3846 38.7632 17.1601ZM17.3166 4.85076C16.8555 4.85076 16.4132 4.66644 16.0871 4.33835C15.761 4.01026 15.5778 3.56527 15.5778 3.10129C15.5778 2.6373 15.761 2.19231 16.0871 1.86422C16.4132 1.53613 16.8555 1.35181 17.3166 1.35181C17.7778 1.35181 18.2201 1.53613 18.5462 1.86422C18.8723 2.19231 19.0555 2.6373 19.0555 3.10129C19.0555 3.56527 18.8723 4.01026 18.5462 4.33835C18.2201 4.66644 17.7778 4.85076 17.3166 4.85076ZM8.53585 1.35181C8.99701 1.35181 9.43929 1.53613 9.76538 1.86422C10.0915 2.19231 10.2747 2.6373 10.2747 3.10129C10.2747 3.56527 10.0915 4.01026 9.76538 4.33835C9.43929 4.66644 8.99701 4.85076 8.53585 4.85076C8.07468 4.85076 7.63241 4.66644 7.30632 4.33835C6.98022 4.01026 6.79703 3.56527 6.79703 3.10129C6.79703 2.6373 6.98022 2.19231 7.30632 1.86422C7.63241 1.53613 8.07468 1.35181 8.53585 1.35181ZM33.7028 20.973C28.6443 20.8871 28.5757 13.5284 33.6374 13.3446C38.6099 13.5002 38.6672 20.7355 33.7028 20.973Z" fill="#A4A4A4"/>
<path d="M33.6374 14.7989C33.015 14.7989 32.418 15.0477 31.9779 15.4905C31.5378 15.9333 31.2905 16.5339 31.2905 17.1601C31.2905 17.7864 31.5378 18.387 31.9779 18.8298C32.418 19.2726 33.015 19.5214 33.6374 19.5214C34.2598 19.5214 34.8568 19.2726 35.2969 18.8298C35.737 18.387 35.9843 17.7864 35.9843 17.1601C35.9843 16.5339 35.737 15.9333 35.2969 15.4905C34.8568 15.0477 34.2598 14.7989 33.6374 14.7989ZM33.6374 18.1798C33.3686 18.1798 33.1109 18.0724 32.9208 17.8811C32.7308 17.6899 32.624 17.4306 32.624 17.1601C32.624 16.8897 32.7308 16.6304 32.9208 16.4392C33.1109 16.2479 33.3686 16.1405 33.6374 16.1405C33.9062 16.1405 34.164 16.2479 34.354 16.4392C34.5441 16.6304 34.6508 16.8897 34.6508 17.1601C34.6508 17.4306 34.5441 17.6899 34.354 17.8811C34.164 18.0724 33.9062 18.1798 33.6374 18.1798Z" fill="#A4A4A4"/>
</svg>
