<svg width="40" height="40" viewBox="0 0 40 40" fill="none" xmlns="http://www.w3.org/2000/svg">
<path d="M35.138 7.52883L27.8048 0.195605C27.7429 0.133629 27.6695 0.0844735 27.5886 0.0509572C27.5077 0.017441 27.421 0.000223965 27.3335 0.000293944H5.33363C5.24608 0.000263147 5.15937 0.0174852 5.07848 0.0509758C4.99759 0.0844665 4.92409 0.133569 4.86218 0.195478C4.80027 0.257387 4.75116 0.330889 4.71767 0.411783C4.68418 0.492676 4.66696 0.579377 4.66699 0.666929V39.3333C4.66696 39.4208 4.68418 39.5075 4.71767 39.5884C4.75116 39.6693 4.80027 39.7428 4.86218 39.8047C4.92409 39.8666 4.99759 39.9157 5.07848 39.9492C5.15937 39.9827 5.24608 39.9999 5.33363 39.9999H34.6668C34.7543 39.9999 34.841 39.9827 34.9219 39.9492C35.0028 39.9157 35.0763 39.8666 35.1382 39.8047C35.2001 39.7428 35.2492 39.6693 35.2827 39.5884C35.3162 39.5075 35.3334 39.4208 35.3334 39.3333V8.00023C35.3334 7.91267 35.3162 7.82596 35.2826 7.74508C35.2491 7.66419 35.2 7.5907 35.138 7.52883ZM34 38.6666H6.00026V1.33356H27.0574L34 8.27687V38.6666Z" fill="#3A8DFF"/>
<path d="M35.1382 7.52885L27.805 0.195624C27.6144 0.00562568 27.3277 -0.0530457 27.0784 0.0509378C26.9566 0.101476 26.8526 0.186962 26.7794 0.296601C26.7062 0.40624 26.6671 0.535115 26.6671 0.666949V8.00025C26.667 8.0878 26.6843 8.1745 26.7177 8.2554C26.7512 8.33629 26.8003 8.40979 26.8622 8.4717C26.9242 8.53361 26.9977 8.58271 27.0785 8.6162C27.1594 8.64969 27.2461 8.66692 27.3337 8.66689H34.667C34.937 8.66689 35.1796 8.50486 35.283 8.25556C35.3864 8.00627 35.3289 7.71955 35.1382 7.52885ZM28.0003 7.33354V2.27694L33.0576 7.33354H28.0003ZM18.0004 6.6669H15.3338V4.00028C15.3338 3.91273 15.3166 3.82603 15.2831 3.74514C15.2496 3.66424 15.2005 3.59074 15.1386 3.52883C15.0767 3.46692 15.0032 3.41782 14.9223 3.38433C14.8414 3.35084 14.7547 3.33362 14.6672 3.33365H12.0005C11.913 3.33362 11.8263 3.35084 11.7454 3.38433C11.6645 3.41782 11.591 3.46692 11.5291 3.52883C11.4672 3.59074 11.4181 3.66424 11.3846 3.74514C11.3511 3.82603 11.3339 3.91273 11.3339 4.00028V6.6669H8.66728C8.57973 6.66687 8.49303 6.68409 8.41213 6.71758C8.33124 6.75107 8.25774 6.80018 8.19583 6.86209C8.13392 6.924 8.08482 6.9975 8.05133 7.07839C8.01784 7.15928 8.00061 7.24598 8.00064 7.33354V10.0002C8.00061 10.0877 8.01784 10.1744 8.05133 10.2553C8.08482 10.3362 8.13392 10.4097 8.19583 10.4716C8.25774 10.5335 8.33124 10.5826 8.41213 10.6161C8.49303 10.6496 8.57973 10.6668 8.66728 10.6668H11.3339V13.3334C11.3339 13.421 11.3511 13.5077 11.3846 13.5886C11.4181 13.6695 11.4672 13.743 11.5291 13.8049C11.591 13.8668 11.6645 13.9159 11.7454 13.9494C11.8263 13.9829 11.913 14.0001 12.0005 14H14.6672C14.7547 14.0001 14.8414 13.9829 14.9223 13.9494C15.0032 13.9159 15.0767 13.8668 15.1386 13.8049C15.2005 13.743 15.2496 13.6695 15.2831 13.5886C15.3166 13.5077 15.3338 13.421 15.3338 13.3334V10.6668H18.0004C18.088 10.6668 18.1747 10.6496 18.2556 10.6161C18.3365 10.5826 18.41 10.5335 18.4719 10.4716C18.5338 10.4097 18.5829 10.3362 18.6164 10.2553C18.6499 10.1744 18.6671 10.0877 18.667 10.0002V7.33354C18.6671 7.24598 18.6499 7.15928 18.6164 7.07839C18.5829 6.9975 18.5338 6.924 18.4719 6.86209C18.41 6.80018 18.3365 6.75107 18.2556 6.71758C18.1747 6.68409 18.088 6.66687 18.0004 6.6669ZM17.3338 9.33352H14.6672C14.5796 9.33349 14.4929 9.35071 14.412 9.3842C14.3311 9.41769 14.2576 9.4668 14.1957 9.52871C14.1338 9.59061 14.0847 9.66412 14.0512 9.74501C14.0177 9.8259 14.0005 9.9126 14.0005 10.0002V12.6668H12.6672V10.0002C12.6672 9.9126 12.65 9.8259 12.6165 9.74501C12.583 9.66412 12.5339 9.59061 12.472 9.52871C12.4101 9.4668 12.3366 9.41769 12.2557 9.3842C12.1748 9.35071 12.0881 9.33349 12.0005 9.33352H9.33392V8.00017H12.0005C12.0881 8.0002 12.1748 7.98298 12.2557 7.94949C12.3366 7.916 12.4101 7.8669 12.472 7.80499C12.5339 7.74308 12.583 7.66958 12.6165 7.58868C12.65 7.50779 12.6672 7.42109 12.6672 7.33354V4.66692H14.0005V7.33354C14.0005 7.42109 14.0177 7.50779 14.0512 7.58868C14.0847 7.66958 14.1338 7.74308 14.1957 7.80499C14.2576 7.8669 14.3311 7.916 14.412 7.94949C14.4929 7.98298 14.5796 8.0002 14.6672 8.00017H17.3338V9.33352ZM31.3337 17.3335H24.6671C24.2991 17.3335 24.0004 17.6314 24.0004 18.0001C24.0004 18.3688 24.2991 18.6667 24.6671 18.6667H31.3337C31.7016 18.6667 32.0003 18.3688 32.0003 18.0001C32.0003 17.6314 31.7016 17.3335 31.3337 17.3335ZM20.667 17.3335H8.66712C8.29916 17.3335 8.00049 17.6314 8.00049 18.0001C8.00049 18.3688 8.29916 18.6667 8.66712 18.6667H20.667C21.0357 18.6667 21.3337 18.3688 21.3337 18.0001C21.3337 17.6314 21.0351 17.3335 20.667 17.3335ZM13.3344 21.3334H8.66712C8.57957 21.3334 8.49287 21.3506 8.41198 21.3841C8.33108 21.4176 8.25758 21.4667 8.19567 21.5286C8.13376 21.5905 8.08466 21.664 8.05117 21.7449C8.01768 21.8258 8.00046 21.9125 8.00049 22.0001C8.00046 22.0876 8.01768 22.1743 8.05117 22.2552C8.08466 22.3361 8.13376 22.4096 8.19567 22.4715C8.25758 22.5334 8.33108 22.5825 8.41198 22.616C8.49287 22.6495 8.57957 22.6667 8.66712 22.6667H13.3344C13.422 22.6667 13.5087 22.6495 13.5896 22.616C13.6705 22.5825 13.744 22.5334 13.8059 22.4715C13.8678 22.4096 13.9169 22.3361 13.9504 22.2552C13.9839 22.1743 14.0011 22.0876 14.0011 22.0001C14.0011 21.9125 13.9839 21.8258 13.9504 21.7449C13.9169 21.664 13.8678 21.5905 13.8059 21.5286C13.744 21.4667 13.6705 21.4176 13.5896 21.3841C13.5087 21.3506 13.422 21.3334 13.3344 21.3334ZM31.3337 21.3334H17.3338C17.2462 21.3334 17.1595 21.3506 17.0786 21.3841C16.9977 21.4176 16.9242 21.4667 16.8623 21.5286C16.8004 21.5905 16.7513 21.664 16.7178 21.7449C16.6843 21.8258 16.6671 21.9125 16.6671 22.0001C16.6671 22.0876 16.6843 22.1743 16.7178 22.2552C16.7513 22.3361 16.8004 22.4096 16.8623 22.4715C16.9242 22.5334 16.9977 22.5825 17.0786 22.616C17.1595 22.6495 17.2462 22.6667 17.3338 22.6667H31.3337C31.4212 22.6667 31.5079 22.6495 31.5888 22.616C31.6697 22.5825 31.7432 22.5334 31.8051 22.4715C31.867 22.4096 31.9161 22.3361 31.9496 22.2552C31.9831 22.1743 32.0003 22.0876 32.0003 22.0001C32.0003 21.9125 31.9831 21.8258 31.9496 21.7449C31.9161 21.664 31.867 21.5905 31.8051 21.5286C31.7432 21.4667 31.6697 21.4176 31.5888 21.3841C31.5079 21.3506 31.4212 21.3334 31.3337 21.3334ZM23.3337 25.3334H8.66712C8.57957 25.3334 8.49287 25.3506 8.41198 25.3841C8.33108 25.4176 8.25758 25.4667 8.19567 25.5286C8.13376 25.5905 8.08466 25.664 8.05117 25.7449C8.01768 25.8258 8.00046 25.9125 8.00049 26C8.00046 26.0876 8.01768 26.1743 8.05117 26.2552C8.08466 26.3361 8.13376 26.4096 8.19567 26.4715C8.25758 26.5334 8.33108 26.5825 8.41198 26.616C8.49287 26.6495 8.57957 26.6667 8.66712 26.6667H23.3336C23.4212 26.6667 23.5079 26.6495 23.5888 26.616C23.6697 26.5825 23.7432 26.5334 23.8051 26.4715C23.867 26.4096 23.9161 26.3361 23.9496 26.2552C23.9831 26.1743 24.0003 26.0876 24.0003 26C24.0003 25.9125 23.9831 25.8258 23.9496 25.7449C23.9161 25.664 23.867 25.5905 23.8051 25.5286C23.7432 25.4667 23.6697 25.4176 23.5889 25.3841C23.508 25.3506 23.4213 25.3334 23.3337 25.3334ZM31.3337 25.3334H27.3331C27.2455 25.3334 27.1588 25.3506 27.0779 25.3841C26.997 25.4176 26.9235 25.4667 26.8616 25.5286C26.7997 25.5905 26.7506 25.664 26.7171 25.7449C26.6836 25.8258 26.6664 25.9125 26.6664 26C26.6664 26.0876 26.6836 26.1743 26.7171 26.2552C26.7506 26.3361 26.7997 26.4096 26.8616 26.4715C26.9235 26.5334 26.997 26.5825 27.0779 26.616C27.1588 26.6495 27.2455 26.6667 27.3331 26.6667H31.3337C31.4212 26.6667 31.5079 26.6495 31.5888 26.616C31.6697 26.5825 31.7432 26.5334 31.8051 26.4715C31.867 26.4096 31.9161 26.3361 31.9496 26.2552C31.9831 26.1743 32.0003 26.0876 32.0003 26C32.0003 25.9125 31.9831 25.8258 31.9496 25.7449C31.9161 25.664 31.867 25.5905 31.8051 25.5286C31.7432 25.4667 31.6697 25.4176 31.5888 25.3841C31.5079 25.3506 31.4212 25.3334 31.3337 25.3334ZM31.3337 35.3333H21.3337C21.2462 35.3333 21.1595 35.3505 21.0786 35.384C20.9977 35.4175 20.9242 35.4666 20.8623 35.5285C20.8004 35.5904 20.7513 35.6639 20.7178 35.7448C20.6843 35.8257 20.6671 35.9124 20.6671 36C20.6671 36.0875 20.6843 36.1742 20.7178 36.2551C20.7513 36.336 20.8004 36.4095 20.8623 36.4714C20.9242 36.5333 20.9977 36.5824 21.0786 36.6159C21.1595 36.6494 21.2462 36.6666 21.3337 36.6666H31.3337C31.4212 36.6666 31.5079 36.6494 31.5888 36.6159C31.6697 36.5824 31.7432 36.5333 31.8051 36.4714C31.867 36.4095 31.9161 36.336 31.9496 36.2551C31.9831 36.1742 32.0003 36.0875 32.0003 36C32.0003 35.9124 31.9831 35.8257 31.9496 35.7448C31.9161 35.6639 31.867 35.5904 31.8051 35.5285C31.7432 35.4666 31.6697 35.4175 31.5888 35.384C31.5079 35.3505 31.4212 35.3333 31.3337 35.3333ZM30.473 32.862C30.0696 32.4587 29.5396 31.172 29.3003 30.456C29.2649 30.3503 29.2036 30.2551 29.1219 30.1792C29.0403 30.1033 28.941 30.049 28.833 30.0213C28.613 29.9666 28.3803 30.0247 28.2143 30.178L27.4777 30.8606C27.2684 31.0561 26.9938 31.1667 26.7074 31.1709C26.421 31.1751 26.1433 31.0726 25.9284 30.8833L25.1064 30.1646C24.9624 30.0393 24.7697 29.9833 24.5784 30.008C24.4839 30.0208 24.3933 30.0536 24.3125 30.1042C24.2317 30.1548 24.1626 30.222 24.1097 30.3013C23.7551 30.8326 22.8137 32.2433 22.1958 32.862C22.1338 32.9239 22.0846 32.9973 22.0511 33.0782C22.0175 33.1591 22.0002 33.2458 22.0002 33.3333C22.0002 33.4209 22.0175 33.5076 22.0511 33.5885C22.0846 33.6693 22.1338 33.7428 22.1958 33.8047C22.2576 33.8666 22.3311 33.9158 22.412 33.9494C22.4928 33.9829 22.5795 34.0002 22.6671 34.0002C22.7547 34.0002 22.8414 33.9829 22.9222 33.9494C23.0031 33.9158 23.0766 33.8666 23.1384 33.8047C23.6631 33.28 24.3224 32.3613 24.7978 31.666L25.0498 31.8873C26.0125 32.73 27.4464 32.71 28.3838 31.8387L28.3931 31.83C28.6731 32.5053 29.0851 33.3606 29.5291 33.8047C29.5909 33.8666 29.6644 33.9158 29.7453 33.9493C29.8261 33.9828 29.9128 34.0001 30.0004 34C30.0882 34.0001 30.1751 33.9829 30.2562 33.9494C30.3373 33.9159 30.411 33.8667 30.473 33.8047C30.535 33.7428 30.5842 33.6693 30.6177 33.5885C30.6512 33.5076 30.6685 33.4209 30.6685 33.3333C30.6685 33.2458 30.6512 33.1591 30.6177 33.0782C30.5841 32.9973 30.5349 32.9239 30.473 32.862Z" fill="#3A8DFF"/>
</svg>
