<svg width="41" height="40" viewBox="0 0 41 40" fill="none" xmlns="http://www.w3.org/2000/svg">
<g clip-path="url(#clip0_1868_2485)">
<path d="M35.2753 0H6.96935C4.22653 0 2 2.22652 2 4.96289V35.0307C2 37.7735 4.22653 40 6.96935 40H35.2753C36.5015 40 37.4953 39.0061 37.4953 37.7799V2.22652C37.4953 1.00032 36.5015 0 35.2753 0ZM36.282 2.22652V30.0613H9.79606V1.21329H35.2753C35.8303 1.21329 36.282 1.66505 36.282 2.22652ZM3.21329 31.778V4.96289C3.21329 2.89771 4.89771 1.21329 6.96935 1.21329H8.58277V30.0613H6.96935C5.65279 30.0613 4.40077 30.5776 3.45208 31.5198C3.36818 31.5973 3.29074 31.6876 3.21329 31.778ZM36.282 37.7735C36.282 38.3285 35.8303 38.7867 35.2688 38.7867H6.96935C4.89771 38.7867 3.21329 37.1023 3.21329 35.0307C3.21329 34.0303 3.60697 33.0881 4.31042 32.3717C5.01575 31.6665 5.97191 31.2696 6.96935 31.2681H36.282V37.7735Z" fill="#A4A4A4"/>
<path d="M5.5752 35.0306C5.5752 35.3662 5.84625 35.6373 6.18184 35.6373H33.4035C33.5644 35.6373 33.7187 35.5734 33.8325 35.4596C33.9463 35.3458 34.0102 35.1915 34.0102 35.0306C34.0102 34.8697 33.9463 34.7154 33.8325 34.6017C33.7187 34.4879 33.5644 34.424 33.4035 34.424H6.18184C5.84625 34.424 5.5752 34.695 5.5752 35.0306ZM16.5529 13.9077H20.3348V17.6896C20.3348 18.0252 20.6058 18.2962 20.9414 18.2962H25.1428C25.4784 18.2962 25.7494 18.0252 25.7494 17.6896V13.9077H29.5313C29.8669 13.9077 30.138 13.6366 30.138 13.301V9.10615C30.138 8.77055 29.8669 8.4995 29.5313 8.4995H25.7494V4.71763C25.7494 4.38204 25.4784 4.11098 25.1428 4.11098H20.9414C20.6058 4.11098 20.3348 4.38204 20.3348 4.71763V8.4995H16.5529C16.2173 8.4995 15.9463 8.77055 15.9463 9.10615V13.301C15.9463 13.6366 16.2173 13.9077 16.5529 13.9077ZM17.1596 9.71279H20.9414C21.277 9.71279 21.5481 9.44174 21.5481 9.10615V5.32428H24.5361V9.10615C24.5361 9.44174 24.8072 9.71279 25.1428 9.71279H28.9247V12.7009H25.1428C24.8072 12.7009 24.5361 12.9719 24.5361 13.3075V17.0894H21.5481V13.3075C21.5481 12.9719 21.277 12.7009 20.9414 12.7009H17.1596V9.71279ZM16.5529 22.4847H29.5249C29.6857 22.4847 29.8401 22.4207 29.9538 22.307C30.0676 22.1932 30.1315 22.0389 30.1315 21.878C30.1315 21.7171 30.0676 21.5628 29.9538 21.449C29.8401 21.3353 29.6857 21.2714 29.5249 21.2714H16.5529C16.392 21.2714 16.2377 21.3353 16.124 21.449C16.0102 21.5628 15.9463 21.7171 15.9463 21.878C15.9463 22.0389 16.0102 22.1932 16.124 22.307C16.2377 22.4207 16.392 22.4847 16.5529 22.4847ZM13.5842 26.8796H32.4936C32.6544 26.8796 32.8088 26.8157 32.9225 26.7019C33.0363 26.5882 33.1002 26.4339 33.1002 26.273C33.1002 26.1121 33.0363 25.9578 32.9225 25.844C32.8088 25.7302 32.6544 25.6663 32.4936 25.6663H13.5842C13.4233 25.6663 13.269 25.7302 13.1553 25.844C13.0415 25.9578 12.9776 26.1121 12.9776 26.273C12.9776 26.4339 13.0415 26.5882 13.1553 26.7019C13.269 26.8157 13.4233 26.8796 13.5842 26.8796Z" fill="#A4A4A4"/>
</g>
<defs>
<clipPath id="clip0_1868_2485">
<rect width="40" height="40" fill="white" transform="translate(0.5)"/>
</clipPath>
</defs>
</svg>
