<svg width="16" height="17" viewBox="0 0 16 17" fill="none" xmlns="http://www.w3.org/2000/svg">
<g clip-path="url(#clip0_1868_2251)">
<path d="M15.4284 8.49998C15.4284 10.4702 14.6458 12.3596 13.2527 13.7528C11.8595 15.1459 9.97004 15.9286 7.99986 15.9286C6.02968 15.9286 4.14019 15.1459 2.74707 13.7528C1.35394 12.3596 0.571289 10.4702 0.571289 8.49998M15.4284 8.49998C15.4284 6.5298 14.6458 4.64032 13.2527 3.24719C11.8595 1.85406 9.97004 1.07141 7.99986 1.07141C6.02968 1.07141 4.14019 1.85406 2.74707 3.24719C1.35394 4.64032 0.571289 6.5298 0.571289 8.49998M15.4284 8.49998H0.571289" stroke="#A4A4A4" stroke-width="1.3" stroke-linecap="round" stroke-linejoin="round"/>
<path d="M10.8569 8.49998C10.7165 11.2165 9.71593 13.8181 7.99972 15.9286C6.28352 13.8181 5.28292 11.2165 5.14258 8.49998C5.28292 5.78342 6.28352 3.18187 7.99972 1.07141C9.71593 3.18187 10.7165 5.78342 10.8569 8.49998Z" stroke="#A4A4A4" stroke-width="1.3" stroke-linecap="round" stroke-linejoin="round"/>
</g>
<defs>
<clipPath id="clip0_1868_2251">
<rect width="16" height="16" fill="white" transform="translate(0 0.5)"/>
</clipPath>
</defs>
</svg>
