<!-- icon666.com - MILLIONS vector ICONS FREE --><svg id="Capa_1" enable-background="new 0 0 598.223 598.223" viewBox="0 0 598.223 598.223" xmlns="http://www.w3.org/2000/svg"><g><g id="line_1_x2C_5_24_"><g><path d="m384.438 561.655h-180.03c-7.501 0-18.753-3.751-22.504-11.252l-176.278-232.538c-7.501-11.252-7.501-22.504 0-33.756l180.03-236.289c0-7.501 11.252-11.252 18.753-11.252h180.03c11.252 0 18.753 3.751 26.254 15.002 3.751 7.501 3.751 18.753 0 30.005l-71.262 105.017h228.788c18.753 0 30.005 11.252 30.005 30.005s-11.252 30.005-30.005 30.005h-277.546c-11.252 0-18.753-3.751-26.254-15.002-3.751-11.252-3.751-22.504 0-30.005l67.511-108.767h-112.519l-157.526 206.284 157.526 206.284h112.519l-67.511-108.768c-3.751-7.501-3.751-18.753 0-26.254s15.002-15.002 26.254-15.002h255.042v-26.254c0-15.002 11.252-30.005 30.005-30.005s22.504 11.252 22.504 30.005v56.259c0 15.002-11.252 30.005-30.005 30.005h-228.788l67.511 108.768c3.751 7.501 7.501 18.753 0 30.005-3.751 3.749-15.003 7.5-22.504 7.5z" fill="#000000" style="fill: rgb(255, 255, 255);"></path></g></g></g></svg>