<!-- icon666.com - MILLIONS vector ICONS FREE --><svg version="1.1" id="Capa_1" xmlns="http://www.w3.org/2000/svg" xmlns:xlink="http://www.w3.org/1999/xlink" x="0px" y="0px" viewBox="0 0 512 512" style="enable-background:new 0 0 512 512;" xml:space="preserve"><g><g><path d="M486.4,204.8h-33.28c-5.12-17.92-12.8-35.84-23.04-53.76L453.12,128c10.24-10.24,10.24-25.6,0-35.84l-35.84-35.84 c-10.24-10.24-25.6-10.24-35.84,0L358.4,79.36c-15.36-10.24-33.28-17.92-53.76-23.04V25.6c0-15.36-10.24-25.6-25.6-25.6h-51.2 c-15.36,0-25.6,10.24-25.6,25.6v33.28c-15.36,5.12-33.28,10.24-51.2,20.48l-20.48-23.04c-10.24-10.24-25.6-10.24-35.84,0 l-38.4,35.84c-10.24,10.24-10.24,25.6,0,35.84l23.04,23.04C69.12,168.96,64,186.88,58.88,204.8H25.6C10.24,204.8,0,215.04,0,230.4 v51.2c0,15.36,10.24,25.6,25.6,25.6h33.28c5.12,17.92,12.8,35.84,23.04,53.76L58.88,384c-10.24,10.24-10.24,25.6,0,35.84 l35.84,35.84c10.24,10.24,25.6,10.24,35.84,0l23.04-23.04c15.36,10.24,33.28,17.92,53.76,23.04v30.72 c0,15.36,10.24,25.6,25.6,25.6h51.2c15.36,0,25.6-10.24,25.6-25.6v-33.28c17.92-5.12,35.84-12.8,53.76-23.04l23.04,23.04 c10.24,10.24,25.6,10.24,35.84,0l35.84-35.84c10.24-10.24,10.24-25.6,0-35.84L435.2,358.4c10.24-15.36,17.92-33.28,23.04-53.76 h28.16c15.36,0,25.6-10.24,25.6-25.6v-51.2C512,215.04,501.76,204.8,486.4,204.8z M256,384c-71.68,0-128-56.32-128-128 s56.32-128,128-128s128,56.32,128,128S327.68,384,256,384z" fill="#000000" style="fill: rgb(217,217,223) ;"></path></g></g><g><g><circle cx="256" cy="256" r="76.8" fill="#000000" style="fill: rgb(217,217,223);"></circle></g></g></svg>