<svg width="32" height="32" viewBox="0 0 32 32" fill="none" xmlns="http://www.w3.org/2000/svg">
<path d="M19.8956 16.4174L14.1912 19.4783C14.0521 19.4783 13.913 19.6174 13.913 19.6174C13.7738 19.6174 13.6347 19.6174 13.6347 19.4783C13.4956 19.3391 13.3564 19.2 13.3564 18.9217V12.6609C13.3564 12.3826 13.4956 12.2435 13.6347 12.1043C13.7738 11.9652 14.0521 11.9652 14.3304 12.1043L20.0347 15.3043C20.313 15.4435 20.4521 15.5826 20.4521 15.8609C20.1738 16 20.0347 16.2783 19.8956 16.4174Z" fill="#1B59AD"/>
<path d="M26.713 0H5.28696C2.36522 0 0 2.36522 0 5.28696V26.713C0 29.6348 2.36522 32 5.28696 32H26.713C29.6348 32 32 29.6348 32 26.713V5.28696C32 2.36522 29.6348 0 26.713 0ZM27.2696 16.8348C27.2696 18.6435 26.9913 20.4522 26.9913 20.4522C26.9913 20.5913 26.713 22.2609 26.0174 23.0957C25.1826 24.0696 24.0696 24.2087 23.6522 24.2087H23.513C20.5913 24.487 16 24.487 16 24.487C15.7217 24.487 10.4348 24.487 8.76522 24.2087H8.48696C7.93043 24.0696 6.81739 24.0696 5.98261 23.0957C5.14783 22.2609 4.86957 20.7304 4.86957 20.5913C4.86957 20.4522 4.5913 18.7826 4.5913 16.8348V15.1652L4.86957 11.5478C4.86957 11.4087 5.14783 9.73913 5.84348 8.90435C6.67826 7.93044 7.7913 7.7913 8.2087 7.7913H8.34783C11.4087 7.51304 16 7.51304 16 7.51304C16 7.51304 20.5913 7.51304 23.513 7.7913H23.6522C24.2087 7.7913 25.1826 7.93044 26.0174 8.90435C26.8522 9.73913 27.1304 11.2696 27.1304 11.4087C27.1304 11.5478 27.4087 13.2174 27.4087 15.0261V16.8348H27.2696Z" fill="#1B59AD"/>
<path d="M14.4697 17.8092L18.0871 15.7222L14.4697 13.7744V17.8092Z" fill="#1B59AD"/>
</svg>
