<svg width="32" height="32" viewBox="0 0 32 32" fill="none" xmlns="http://www.w3.org/2000/svg">
<path d="M21.5329 10.4673L21.4929 10.4273C20.1854 9.11933 18.4541 8.32084 16.6104 8.17543C14.7668 8.03001 12.9317 8.54721 11.4353 9.63399C9.93894 10.7208 8.87943 12.3058 8.44737 14.1041C8.01531 15.9023 8.23906 17.7956 9.07836 19.4436L9.42018 20.1164L8.78381 23.2073L8.77472 23.2473L11.8456 22.52L12.5456 22.8745C14.0021 23.5981 15.6488 23.8469 17.254 23.586C18.8593 23.3251 20.3424 22.5676 21.4947 21.42C22.9442 19.9703 23.7618 18.0064 23.7693 15.9564C23.7768 13.9064 22.9736 11.9366 21.5347 10.4764L21.5329 10.4673ZM21.2202 19.1436C20.8438 19.7364 20.2493 20.46 19.502 20.64C18.1929 20.9582 16.1838 20.6509 13.6838 18.3218L13.6529 18.2927C11.4547 16.2564 10.8838 14.56 11.022 13.2145C11.0984 12.4491 11.7347 11.76 12.2711 11.3073C12.356 11.2353 12.4566 11.1841 12.5648 11.1577C12.673 11.1314 12.7858 11.1306 12.8944 11.1555C13.0029 11.1804 13.1041 11.2302 13.1901 11.3011C13.276 11.3719 13.3442 11.4618 13.3893 11.5636L14.1984 13.3927C14.2513 13.5105 14.271 13.6406 14.2553 13.7688C14.2396 13.897 14.1891 14.0185 14.1093 14.12L13.7002 14.6509C13.6145 14.7598 13.5628 14.8914 13.5515 15.0295C13.5402 15.1676 13.5698 15.3059 13.6365 15.4273C13.8656 15.8273 14.4147 16.4182 15.0238 16.9673C15.7074 17.5836 16.4656 18.1491 16.9456 18.3436C17.0744 18.3951 17.2155 18.4073 17.3511 18.3785C17.4868 18.3496 17.6108 18.2812 17.7075 18.1818L18.182 17.7036C18.2736 17.6133 18.3874 17.5489 18.512 17.517C18.6366 17.4851 18.7674 17.4867 18.8911 17.5218L20.8129 18.0673C20.9192 18.0997 21.0166 18.1561 21.0977 18.232C21.1788 18.308 21.2414 18.4015 21.2808 18.5055C21.3201 18.6094 21.3351 18.721 21.3246 18.8316C21.3141 18.9422 21.2784 19.049 21.2202 19.1436Z" fill="#1B59AD"/>
<path d="M27.6364 0H4.36364C3.20633 0 2.09642 0.459739 1.27808 1.27808C0.459739 2.09642 0 3.20633 0 4.36364L0 27.6364C0 28.7937 0.459739 29.9036 1.27808 30.7219C2.09642 31.5403 3.20633 32 4.36364 32H27.6364C28.7937 32 29.9036 31.5403 30.7219 30.7219C31.5403 29.9036 32 28.7937 32 27.6364V4.36364C32 3.20633 31.5403 2.09642 30.7219 1.27808C29.9036 0.459739 28.7937 0 27.6364 0ZM25.9145 16.2364C25.8609 17.8974 25.3908 19.5184 24.5475 20.9505C23.7043 22.3826 22.5147 23.58 21.0882 24.4326C19.6616 25.2853 18.0437 25.7659 16.383 25.8304C14.7223 25.8949 13.072 25.5412 11.5836 24.8018L6.57455 25.9891C6.49863 26.0068 6.41914 26.0011 6.34647 25.9729C6.27381 25.9447 6.21135 25.8952 6.16727 25.8309C6.13752 25.7882 6.11685 25.7399 6.10653 25.689C6.09621 25.638 6.09646 25.5854 6.10727 25.5345L7.16 20.4236C6.47334 19.0753 6.10422 17.5878 6.08089 16.0749C6.05755 14.5619 6.38062 13.0637 7.02536 11.6949C7.67011 10.326 8.61945 9.12277 9.80074 8.17724C10.982 7.23171 12.364 6.56893 13.8408 6.23963C15.3176 5.91034 16.8502 5.92324 18.3213 6.27735C19.7924 6.63147 21.163 7.31741 22.3282 8.28269C23.4934 9.24798 24.4223 10.467 25.0439 11.8465C25.6656 13.2261 25.9633 14.7295 25.9145 16.2418V16.2364Z" fill="#1B59AD"/>
</svg>
