<svg width="24" height="24" viewBox="0 0 24 24" fill="none" xmlns="http://www.w3.org/2000/svg">
<path d="M10.38 2L1.75977 5.13489V12.1029C1.75977 19.9761 10.125 22.1182 10.209 22.1397L10.38 22.1807L10.551 22.1397C10.635 22.1182 19.0002 19.9761 19.0002 12.1029V5.13489L10.38 2ZM17.5635 12.1029C17.5635 18.3375 11.5222 20.369 10.3829 20.6966C9.2838 20.3712 3.19647 18.2836 3.19647 12.1029V6.14059L10.38 3.52866L17.5635 6.14059V12.1029Z" fill="#3A8DFF"/>
<path d="M6.57776 11.595L5.56201 12.6107L8.9433 15.992L15.198 9.73731L14.1823 8.72156L8.9433 13.9605L6.57776 11.595Z" fill="#3A8DFF"/>
</svg>
