<svg width="24" height="24" viewBox="0 0 24 24" fill="none" xmlns="http://www.w3.org/2000/svg">
<path fill-rule="evenodd" clip-rule="evenodd" d="M12.0122 5.57144L10.9252 4.48445C8.77734 2.33656 5.29493 2.33656 3.14705 4.48445C0.999162 6.63233 0.999162 10.1147 3.14705 12.2626L11.9859 21.1015L11.9877 21.0997L12.014 21.126L20.8528 12.2872C23.0007 10.1393 23.0007 6.65687 20.8528 4.50898C18.705 2.3611 15.2226 2.3611 13.0747 4.50898L12.0122 5.57144ZM11.9877 18.2712L16.9239 13.335L18.3747 11.934L18.3762 11.9354L19.4386 10.8729C20.8055 9.50611 20.8055 7.29003 19.4386 5.9232C18.0718 4.55636 15.8557 4.55636 14.4889 5.9232L12.0133 8.3988L12.006 8.39155L12.005 8.39263L9.51101 5.89866C8.14417 4.53183 5.92809 4.53183 4.56126 5.89866C3.19442 7.2655 3.19442 9.48157 4.56126 10.8484L7.10068 13.3878L7.10248 13.386L11.9877 18.2712Z" fill="#818181"/>
</svg>
