<svg width="20" height="20" viewBox="0 0 20 20" fill="none" xmlns="http://www.w3.org/2000/svg">
<path d="M10.497 16.803L16.741 10.499C17.5507 9.67186 18.0027 8.55953 17.9995 7.40204C17.9964 6.24455 17.5382 5.13472 16.724 4.31202C16.3244 3.90435 15.8476 3.58022 15.3215 3.35848C14.7955 3.13675 14.2306 3.02184 13.6597 3.02045C13.0888 3.01905 12.5233 3.1312 11.9961 3.35035C11.469 3.56951 10.9907 3.89131 10.589 4.29702L9.99302 4.90002L9.38802 4.29002L9.28802 4.19102C8.47308 3.41202 7.38481 2.98421 6.25754 2.99974C5.13027 3.01526 4.05419 3.47287 3.26102 4.27402C1.57302 5.97902 1.58102 8.75002 3.27702 10.463L9.55402 16.803C9.81402 17.066 10.237 17.066 10.497 16.803ZM11.3 5.00002C11.6087 4.6884 11.9764 4.44133 12.3815 4.2732C12.7867 4.10508 13.2212 4.01926 13.6599 4.02075C14.0985 4.02224 14.5325 4.11101 14.9365 4.28188C15.3405 4.45275 15.7064 4.70231 16.013 5.01602C16.6418 5.65162 16.9957 6.50871 16.9987 7.40275C17.0017 8.29678 16.6535 9.15623 16.029 9.79602V9.79802L10.025 15.858L3.98702 9.75902C2.67402 8.43302 2.67302 6.28902 3.97202 4.97702C4.2802 4.66573 4.64727 4.41891 5.05183 4.25095C5.45639 4.083 5.89033 3.99726 6.32837 3.99875C6.76641 4.00024 7.19976 4.08892 7.60317 4.25963C8.00657 4.43033 8.37196 4.67964 8.67802 4.99302L9.63802 5.96302C9.68452 6.01004 9.73988 6.04736 9.8009 6.07283C9.86192 6.09831 9.92739 6.11142 9.99352 6.11142C10.0596 6.11142 10.1251 6.09831 10.1861 6.07283C10.2472 6.04736 10.3025 6.01004 10.349 5.96302L11.3 5.00002Z" fill="white"/>
</svg>
