<svg width="8" height="8" viewBox="0 0 8 8" fill="none" xmlns="http://www.w3.org/2000/svg">
<path fill-rule="evenodd" clip-rule="evenodd" d="M7.79176 7.79177C7.51411 8.06941 7.06396 8.06941 6.78632 7.79177L0.208234 1.21368C-0.0694113 0.936032 -0.0694113 0.48588 0.208234 0.208234C0.485879 -0.0694112 0.936031 -0.0694116 1.21368 0.208234L7.79176 6.78632C8.0694 7.06397 8.0694 7.51412 7.79176 7.79177Z" fill="#7A7A7A"/>
<path fill-rule="evenodd" clip-rule="evenodd" d="M0.208243 7.79177C0.485888 8.06941 0.936039 8.06941 1.21368 7.79177L4.50272 4.50272L7.79177 1.21368C8.06941 0.936032 8.06941 0.48588 7.79177 0.208234C7.51412 -0.0694112 7.06397 -0.0694116 6.78632 0.208234L0.208243 6.78632C-0.0694024 7.06397 -0.0694025 7.51412 0.208243 7.79177Z" fill="#7A7A7A"/>
</svg>
