<svg width="12" height="23" viewBox="0 0 12 23" fill="none" xmlns="http://www.w3.org/2000/svg">
<path fill-rule="evenodd" clip-rule="evenodd" d="M9 1.43748H2.81538C2.43303 1.43748 2.12308 1.74891 2.12308 2.13308C2.12308 2.51725 2.43303 2.82868 2.81538 2.82868H9C9.38235 2.82868 9.69231 2.51725 9.69231 2.13308C9.69231 1.74891 9.38235 1.43748 9 1.43748ZM2.81538 0.51001C1.92323 0.51001 1.2 1.23668 1.2 2.13308C1.2 3.02947 1.92323 3.75614 2.81538 3.75614H9C9.89215 3.75614 10.6154 3.02947 10.6154 2.13308C10.6154 1.23668 9.89215 0.51001 9 0.51001H2.81538Z" fill="#A0A2A6"/>
<path fill-rule="evenodd" clip-rule="evenodd" d="M10.1538 12.5671H1.84615C1.33635 12.5671 0.923077 12.9823 0.923077 13.4945C0.923077 14.0068 1.33635 14.422 1.84615 14.422H10.1538C10.6636 14.422 11.0769 14.0068 11.0769 13.4945C11.0769 12.9823 10.6636 12.5671 10.1538 12.5671ZM1.84615 11.6396C0.826551 11.6396 0 12.4701 0 13.4945C0 14.519 0.826551 15.3495 1.84615 15.3495H10.1538C11.1734 15.3495 12 14.519 12 13.4945C12 12.4701 11.1734 11.6396 10.1538 11.6396H1.84615Z" fill="#A0A2A6"/>
<path fill-rule="evenodd" clip-rule="evenodd" d="M2.32504 12.4008L3.53374 3.29241H4.46498L3.29575 12.1033H8.61134L7.44211 3.29241H8.30705V2.7928L9.59599 12.5058L9.23013 12.5548V12.5671H2.32769C2.31874 12.5136 2.31748 12.4577 2.32504 12.4008Z" fill="#A0A2A6"/>
<path fill-rule="evenodd" clip-rule="evenodd" d="M3.51537 14.422C3.5023 14.4995 3.50549 14.5815 3.52822 14.6637L5.70364 22.5325C5.85831 23.0919 6.65539 23.0693 6.77843 22.502L8.48499 14.6332C8.50064 14.5611 8.50166 14.4897 8.49027 14.422H3.51537ZM6.19398 20.8408L4.54764 14.8857H7.48549L6.19398 20.8408Z" fill="#A0A2A6"/>
</svg>
