<svg width="17" height="22" viewBox="0 0 17 22" fill="none" xmlns="http://www.w3.org/2000/svg">
<path fill-rule="evenodd" clip-rule="evenodd" d="M15.2465 5.37198L10.1227 1.90852C9.80591 1.6944 9.37471 1.77883 9.15957 2.09711C8.94443 2.41539 9.02682 2.84698 9.34359 3.0611L14.4675 6.52456C14.7842 6.73868 15.2154 6.65425 15.4306 6.33597C15.6457 6.01769 15.5633 5.5861 15.2465 5.37198ZM10.6421 1.14013C9.90294 0.640509 8.89681 0.837527 8.39482 1.58018C7.89282 2.32283 8.08506 3.32988 8.8242 3.8295L13.9481 7.29295C14.6872 7.79257 15.6933 7.59555 16.1953 6.8529C16.6973 6.11025 16.5051 5.1032 15.7659 4.60358L10.6421 1.14013Z" fill="#A0A2A6"/>
<path fill-rule="evenodd" clip-rule="evenodd" d="M9.96978 15.2388L3.08698 10.5864C2.66462 10.3009 2.08969 10.4135 1.80283 10.8379C1.51598 11.2623 1.62583 11.8377 2.0482 12.1232L8.93099 16.7756C9.35335 17.0611 9.92829 16.9485 10.2151 16.5242C10.502 16.0998 10.3921 15.5243 9.96978 15.2388ZM3.60637 9.81805C2.76165 9.24706 1.61178 9.47222 1.03808 10.321C0.464374 11.1697 0.68408 12.3206 1.5288 12.8916L8.4116 17.544C9.25633 18.115 10.4062 17.8898 10.9799 17.0411C11.5536 16.1924 11.3339 15.0414 10.4892 14.4705L3.60637 9.81805Z" fill="#A0A2A6"/>
<path fill-rule="evenodd" clip-rule="evenodd" d="M3.57686 10.7168L9.67904 3.84759L10.4506 4.3691L4.54765 11.014L8.95153 13.9908L12.9171 6.03632L13.6337 6.5207L13.9134 6.10678L9.54192 14.8757L9.21137 14.7114L9.20449 14.7216L3.48593 10.8561C3.50847 10.8068 3.53871 10.7598 3.57686 10.7168Z" fill="#A0A2A6"/>
<path fill-rule="evenodd" clip-rule="evenodd" d="M3.43112 13.058C3.3769 13.1149 3.33362 13.1846 3.30642 13.2654L0.702121 21.0028C0.51696 21.553 1.18997 21.9806 1.60962 21.5795L7.43008 16.016C7.48345 15.965 7.52424 15.9065 7.55275 15.844L3.43112 13.058ZM2.05573 19.8759L4.02664 14.0203L6.4606 15.6655L2.05573 19.8759Z" fill="#A0A2A6"/>
</svg>
