<svg width="12" height="12" viewBox="0 0 12 12" fill="none" xmlns="http://www.w3.org/2000/svg">
<path fill-rule="evenodd" clip-rule="evenodd" d="M5.67493 11.3623C5.28228 11.3636 4.9629 11.0464 4.96158 10.6537L4.93025 1.35097C4.92893 0.958325 5.24616 0.638948 5.63881 0.637626C6.03146 0.636303 6.35083 0.953534 6.35215 1.34618L6.38348 10.6489C6.3848 11.0416 6.06757 11.361 5.67493 11.3623Z" fill="#384A9E"/>
<path fill-rule="evenodd" clip-rule="evenodd" d="M0.294541 6.01803C0.295863 6.41068 0.615237 6.72791 1.00788 6.72659L10.3106 6.69525C10.7033 6.69392 11.0205 6.37455 11.0192 5.9819C11.0179 5.58925 10.6985 5.27202 10.3059 5.27334L1.0031 5.30468C0.61045 5.30601 0.293218 5.62538 0.294541 6.01803Z" fill="#384A9E"/>
</svg>
