<svg width="17" height="16" viewBox="0 0 17 16" fill="none" xmlns="http://www.w3.org/2000/svg">
<path d="M15.4223 11.0132L14.7822 10.6223L14.7822 10.6223L15.4223 11.0132ZM14.6666 12.2507L15.3067 12.6416V12.6415L14.6666 12.2507ZM1.57774 5.1063L0.937655 4.71541H0.937655L1.57774 5.1063ZM2.33342 3.86886L2.97351 4.25975L2.33342 3.86886ZM4.39799 3.34586L4.75733 2.68754L4.75732 2.68754L4.39799 3.34586ZM2.13094 7.05818L1.77161 7.71649H1.77161L2.13094 7.05818ZM12.602 12.7737L12.2427 13.432L12.2427 13.432L12.602 12.7737ZM14.8691 9.06135L14.5097 9.71966L14.8691 9.06135ZM2.33342 12.2507L1.69334 12.6416L1.69334 12.6416L2.33342 12.2507ZM1.57774 11.0132L2.21782 10.6223H2.21782L1.57774 11.0132ZM14.6666 3.86887L15.3067 3.47798V3.47798L14.6666 3.86887ZM15.4223 5.10631L14.7822 5.4972L14.7822 5.4972L15.4223 5.10631ZM14.8691 7.05819L15.2284 7.7165L14.8691 7.05819ZM12.602 3.34587L12.9613 4.00418L12.602 3.34587ZM2.13094 9.06136L2.49027 9.71967H2.49027L2.13094 9.06136ZM4.39799 12.7737L4.03866 12.1154L4.03866 12.1154L4.39799 12.7737ZM12.5217 3.38972L12.1623 2.7314V2.7314L12.5217 3.38972ZM4.47833 3.38971L4.119 4.04803L4.119 4.04803L4.47833 3.38971ZM12.5217 12.7298L12.881 12.0715L12.881 12.0715L12.5217 12.7298ZM4.47833 12.7298L4.83766 13.3881L4.83767 13.3881L4.47833 12.7298ZM7.74432 1.66541H9.25568V0.165405H7.74432V1.66541ZM9.25568 14.4541H7.74432V15.9541H9.25568V14.4541ZM7.74432 14.4541C7.2836 14.4541 6.98295 14.1111 6.98295 13.7753H5.48295C5.48295 15.0177 6.53562 15.9541 7.74432 15.9541V14.4541ZM10.0171 13.7753C10.0171 14.1111 9.7164 14.4541 9.25568 14.4541V15.9541C10.4644 15.9541 11.5171 15.0177 11.5171 13.7753H10.0171ZM9.25568 1.66541C9.7164 1.66541 10.0171 2.00845 10.0171 2.34428H11.5171C11.5171 1.10181 10.4644 0.165405 9.25568 0.165405V1.66541ZM7.74432 0.165405C6.53562 0.165405 5.48295 1.10181 5.48295 2.34428H6.98295C6.98295 2.00845 7.2836 1.66541 7.74432 1.66541V0.165405ZM14.7822 10.6223L14.0265 11.8598L15.3067 12.6415L16.0623 11.4041L14.7822 10.6223ZM2.21782 5.49719L2.97351 4.25975L1.69334 3.47797L0.937655 4.71541L2.21782 5.49719ZM2.97351 4.25975C3.17281 3.93338 3.65063 3.79237 4.03866 4.00417L4.75732 2.68754C3.6996 2.1102 2.32874 2.4375 1.69334 3.47797L2.97351 4.25975ZM2.49027 6.39986C2.12467 6.2003 2.03485 5.79681 2.21782 5.49719L0.937655 4.71541C0.285921 5.78263 0.691455 7.12691 1.77161 7.71649L2.49027 6.39986ZM14.0265 11.8598C13.8272 12.1861 13.3494 12.3272 12.9613 12.1153L12.2427 13.432C13.3004 14.0093 14.6713 13.682 15.3067 12.6416L14.0265 11.8598ZM16.0623 11.4041C16.7141 10.3369 16.3085 8.99261 15.2284 8.40303L14.5097 9.71966C14.8753 9.91922 14.9652 10.3227 14.7822 10.6223L16.0623 11.4041ZM2.97351 11.8598L2.21782 10.6223L0.937654 11.4041L1.69334 12.6416L2.97351 11.8598ZM14.0265 4.25976L14.7822 5.4972L16.0623 4.71542L15.3067 3.47798L14.0265 4.25976ZM14.7822 5.4972C14.9652 5.79682 14.8753 6.20031 14.5097 6.39987L15.2284 7.7165C16.3085 7.12692 16.7141 5.78264 16.0623 4.71542L14.7822 5.4972ZM12.9613 4.00418C13.3494 3.79238 13.8272 3.93339 14.0265 4.25976L15.3067 3.47798C14.6713 2.43751 13.3004 2.11021 12.2427 2.68755L12.9613 4.00418ZM2.21782 10.6223C2.03485 10.3227 2.12467 9.91923 2.49027 9.71967L1.7716 8.40304C0.691453 8.99263 0.28592 10.3369 0.937654 11.4041L2.21782 10.6223ZM1.69334 12.6416C2.32874 13.682 3.6996 14.0093 4.75732 13.432L4.03866 12.1154C3.65063 12.3272 3.17281 12.1862 2.97351 11.8598L1.69334 12.6416ZM12.881 4.04803L12.9613 4.00418L12.2427 2.68755L12.1623 2.7314L12.881 4.04803ZM4.03866 4.00417L4.119 4.04803L4.83767 2.7314L4.75733 2.68754L4.03866 4.00417ZM12.9613 12.1153L12.881 12.0715L12.1623 13.3881L12.2427 13.432L12.9613 12.1153ZM4.119 12.0715L4.03866 12.1154L4.75732 13.432L4.83766 13.3881L4.119 12.0715ZM1.77161 7.71649C2.0421 7.86414 2.0421 8.25539 1.7716 8.40304L2.49027 9.71967C3.80254 9.00339 3.80254 7.11615 2.49027 6.39986L1.77161 7.71649ZM4.83767 13.3881C5.12586 13.2308 5.48295 13.4381 5.48295 13.7753H6.98295C6.98295 12.3063 5.41282 11.3653 4.119 12.0715L4.83767 13.3881ZM11.5171 13.7753C11.5171 13.4381 11.8742 13.2308 12.1623 13.3881L12.881 12.0715C11.5872 11.3653 10.0171 12.3063 10.0171 13.7753H11.5171ZM15.2284 8.40303C14.9579 8.25539 14.9579 7.86414 15.2284 7.7165L14.5097 6.39987C13.1975 7.11615 13.1975 9.00338 14.5097 9.71966L15.2284 8.40303ZM4.119 4.04803C5.41282 4.75424 6.98295 3.81327 6.98295 2.34428H5.48295C5.48295 2.6814 5.12586 2.8887 4.83767 2.73139L4.119 4.04803ZM12.1623 2.7314C11.8742 2.88871 11.5171 2.6814 11.5171 2.34428H10.0171C10.0171 3.81327 11.5872 4.75425 12.881 4.04803L12.1623 2.7314ZM10.125 8.05977C10.125 8.96271 9.39555 9.69122 8.50001 9.69122V11.1912C10.2278 11.1912 11.625 9.7873 11.625 8.05977H10.125ZM8.50001 9.69122C7.60446 9.69122 6.87501 8.96271 6.87501 8.05977H5.37501C5.37501 9.7873 6.7722 11.1912 8.50001 11.1912V9.69122ZM6.87501 8.05977C6.87501 7.15682 7.60446 6.42831 8.50001 6.42831V4.92831C6.7722 4.92831 5.37501 6.33223 5.37501 8.05977H6.87501ZM8.50001 6.42831C9.39555 6.42831 10.125 7.15682 10.125 8.05977H11.625C11.625 6.33223 10.2278 4.92831 8.50001 4.92831V6.42831Z" fill="#CBCED2"/>
</svg>
