<svg width="26" height="27" viewBox="0 0 26 27" fill="none" xmlns="http://www.w3.org/2000/svg">
<path d="M3.71436 5.37497C3.71436 4.57459 4.03231 3.80698 4.59827 3.24103C5.16422 2.67507 5.93183 2.35712 6.73221 2.35712H19.2679C20.0683 2.35712 20.8359 2.67507 21.4019 3.24103C21.9678 3.80698 22.2858 4.57459 22.2858 5.37497V16.6376C22.1737 16.7119 22.0682 16.7986 21.9691 16.8976L20.8929 17.9738V5.37497C20.8929 4.944 20.7217 4.53067 20.417 4.22593C20.1122 3.92118 19.6989 3.74997 19.2679 3.74997H6.73221C6.30124 3.74997 5.88791 3.92118 5.58316 4.22593C5.27842 4.53067 5.10721 4.944 5.10721 5.37497V21.625C5.10721 22.522 5.83521 23.25 6.73221 23.25H14.2239L15.6168 24.6428H6.73221C5.93183 24.6428 5.16422 24.3249 4.59827 23.7589C4.03231 23.193 3.71436 22.4254 3.71436 21.625V5.37497ZM9.75007 8.62497C9.75007 8.93281 9.62778 9.22805 9.4101 9.44572C9.19243 9.6634 8.8972 9.78569 8.58936 9.78569C8.28152 9.78569 7.98628 9.6634 7.76861 9.44572C7.55093 9.22805 7.42864 8.93281 7.42864 8.62497C7.42864 8.31713 7.55093 8.0219 7.76861 7.80422C7.98628 7.58655 8.28152 7.46426 8.58936 7.46426C8.8972 7.46426 9.19243 7.58655 9.4101 7.80422C9.62778 8.0219 9.75007 8.31713 9.75007 8.62497ZM8.58936 14.6607C8.8972 14.6607 9.19243 14.5384 9.4101 14.3207C9.62778 14.103 9.75007 13.8078 9.75007 13.5C9.75007 13.1921 9.62778 12.8969 9.4101 12.6792C9.19243 12.4615 8.8972 12.3393 8.58936 12.3393C8.28152 12.3393 7.98628 12.4615 7.76861 12.6792C7.55093 12.8969 7.42864 13.1921 7.42864 13.5C7.42864 13.8078 7.55093 14.103 7.76861 14.3207C7.98628 14.5384 8.28152 14.6607 8.58936 14.6607ZM8.58936 19.5357C8.8972 19.5357 9.19243 19.4134 9.4101 19.1957C9.62778 18.978 9.75007 18.6828 9.75007 18.375C9.75007 18.0671 9.62778 17.7719 9.4101 17.5542C9.19243 17.3365 8.8972 17.2143 8.58936 17.2143C8.28152 17.2143 7.98628 17.3365 7.76861 17.5542C7.55093 17.7719 7.42864 18.0671 7.42864 18.375C7.42864 18.6828 7.55093 18.978 7.76861 19.1957C7.98628 19.4134 8.28152 19.5357 8.58936 19.5357ZM11.8394 7.92855C11.6547 7.92855 11.4775 8.00192 11.3469 8.13252C11.2163 8.26313 11.1429 8.44027 11.1429 8.62497C11.1429 8.80968 11.2163 8.98682 11.3469 9.11742C11.4775 9.24803 11.6547 9.3214 11.8394 9.3214H17.8751C18.0598 9.3214 18.2369 9.24803 18.3675 9.11742C18.4981 8.98682 18.5715 8.80968 18.5715 8.62497C18.5715 8.44027 18.4981 8.26313 18.3675 8.13252C18.2369 8.00192 18.0598 7.92855 17.8751 7.92855H11.8394ZM11.1429 13.5C11.1429 13.3153 11.2163 13.1381 11.3469 13.0075C11.4775 12.8769 11.6547 12.8035 11.8394 12.8035H17.8751C18.0598 12.8035 18.2369 12.8769 18.3675 13.0075C18.4981 13.1381 18.5715 13.3153 18.5715 13.5C18.5715 13.6847 18.4981 13.8618 18.3675 13.9924C18.2369 14.123 18.0598 14.1964 17.8751 14.1964H11.8394C11.6547 14.1964 11.4775 14.123 11.3469 13.9924C11.2163 13.8618 11.1429 13.6847 11.1429 13.5ZM11.8394 17.6785C11.6547 17.6785 11.4775 17.7519 11.3469 17.8825C11.2163 18.0131 11.1429 18.1903 11.1429 18.375C11.1429 18.5597 11.2163 18.7368 11.3469 18.8674C11.4775 18.998 11.6547 19.0714 11.8394 19.0714H17.8751C18.0598 19.0714 18.2369 18.998 18.3675 18.8674C18.4981 18.7368 18.5715 18.5597 18.5715 18.375C18.5715 18.1903 18.4981 18.0131 18.3675 17.8825C18.2369 17.7519 18.0598 17.6785 17.8751 17.6785H11.8394ZM23.9386 18.8671L18.3672 24.4385C18.2366 24.569 18.0596 24.6422 17.8751 24.6422C17.6905 24.6422 17.5135 24.569 17.3829 24.4385L14.5991 21.6547C14.4761 21.5227 14.4091 21.3481 14.4123 21.1676C14.4154 20.9872 14.4885 20.8151 14.6161 20.6875C14.7437 20.5599 14.9159 20.4868 15.0963 20.4836C15.2767 20.4804 15.4513 20.5474 15.5834 20.6704L17.8751 22.9612L22.9544 17.8819C23.0186 17.8154 23.0955 17.7624 23.1805 17.7259C23.2655 17.6895 23.3569 17.6703 23.4493 17.6696C23.5418 17.6688 23.6335 17.6865 23.7191 17.7215C23.8046 17.7566 23.8824 17.8083 23.9477 17.8737C24.0131 17.9392 24.0648 18.0169 24.0998 18.1025C24.1347 18.1882 24.1523 18.2799 24.1515 18.3723C24.1506 18.4648 24.1314 18.5562 24.0948 18.6411C24.0583 18.7261 24.0052 18.8029 23.9386 18.8671Z" fill="white"/>
</svg>
