<svg width="227" height="225" viewBox="0 0 227 225" fill="none" xmlns="http://www.w3.org/2000/svg">
<path d="M227 112.5C227 174.632 176.184 225 113.5 225C50.8157 225 0 174.632 0 112.5C0 50.368 50.8157 0 113.5 0C176.184 0 227 50.368 227 112.5Z" fill="#9D9D9D"/>
<path d="M185.35 199.592C210.774 178.961 227 147.609 227 112.5C227 50.368 176.184 0 113.5 0C50.8157 0 0 50.368 0 112.5C0 146.971 15.6413 177.821 40.273 198.457C41.4812 197.514 42.7579 196.663 44.0927 195.91L78.3796 176.994C80.5868 175.776 82.4294 173.98 83.7142 171.794C84.9989 169.608 85.6786 167.112 85.6818 164.569V150.359C85.6818 150.359 75.6217 138.184 71.7798 121.268C68.5926 119.185 66.4635 115.58 66.4635 111.484V95.9317C66.4695 94.3029 66.8148 92.6936 67.4767 91.2088C68.1387 89.7239 69.1025 88.3967 70.3054 87.3137V64.8322C70.3054 64.8322 65.7393 29.8469 112.584 29.8469C159.429 29.8469 154.863 64.8322 154.863 64.8322V87.3137C157.2 89.454 158.704 92.5108 158.704 95.9317V111.484C158.704 116.712 155.235 121.11 150.526 122.58C147.916 130.877 144.067 138.721 139.113 145.842C137.851 147.644 136.672 149.171 135.64 150.359V164.929C135.64 167.559 136.364 170.137 137.731 172.374C139.098 174.611 141.054 176.419 143.38 177.595L180.095 196.16C181.96 197.119 183.721 198.269 185.35 199.592Z" fill="#E6E6E6"/>
</svg>
